%TF.GenerationSoftware,KiCad,Pcbnew,5.99.0-unknown-0ab82ef66~91~ubuntu20.04.1*%
%TF.CreationDate,2020-10-15T20:07:38+02:00*%
%TF.ProjectId,KeyPad-LED,4b657950-6164-42d4-9c45-442e6b696361,rev?*%
%TF.SameCoordinates,Original*%
%TF.FileFunction,Copper,L2,Inr*%
%TF.FilePolarity,Positive*%
%FSLAX46Y46*%
G04 Gerber Fmt 4.6, Leading zero omitted, Abs format (unit mm)*
G04 Created by KiCad (PCBNEW 5.99.0-unknown-0ab82ef66~91~ubuntu20.04.1) date 2020-10-15 20:07:38*
%MOMM*%
%LPD*%
G01*
G04 APERTURE LIST*
%TA.AperFunction,ComponentPad*%
%ADD10C,2.032000*%
%TD*%
%TA.AperFunction,ComponentPad*%
%ADD11C,1.700000*%
%TD*%
%TA.AperFunction,ComponentPad*%
%ADD12R,1.700000X1.700000*%
%TD*%
%TA.AperFunction,ComponentPad*%
%ADD13O,1.700000X1.700000*%
%TD*%
%TA.AperFunction,ViaPad*%
%ADD14C,0.800000*%
%TD*%
%TA.AperFunction,Conductor*%
%ADD15C,0.762000*%
%TD*%
G04 APERTURE END LIST*
D10*
%TO.N,N/C*%
%TO.C,MX LED*%
X193040000Y-117475000D03*
X186690000Y-120015000D03*
D11*
X186900000Y-127355000D03*
X189400000Y-127355000D03*
X191600000Y-127355000D03*
X194100000Y-127355000D03*
%TD*%
D10*
%TO.N,N/C*%
%TO.C,MX LED*%
X133985000Y-117475000D03*
X127635000Y-120015000D03*
D11*
X127845000Y-127355000D03*
X130345000Y-127355000D03*
X132545000Y-127355000D03*
X135045000Y-127355000D03*
%TD*%
D10*
%TO.N,N/C*%
%TO.C,MX LED*%
X153670000Y-117475000D03*
X147320000Y-120015000D03*
D11*
X147530000Y-127355000D03*
X150030000Y-127355000D03*
X152230000Y-127355000D03*
X154730000Y-127355000D03*
%TD*%
D10*
%TO.N,N/C*%
%TO.C,MX LED*%
X173355000Y-117475000D03*
X167005000Y-120015000D03*
D11*
X167215000Y-127355000D03*
X169715000Y-127355000D03*
X171915000Y-127355000D03*
X174415000Y-127355000D03*
%TD*%
D10*
%TO.N,N/C*%
%TO.C,MX LED*%
X193040000Y-97790000D03*
X186690000Y-100330000D03*
D11*
X186900000Y-107670000D03*
X189400000Y-107670000D03*
X191600000Y-107670000D03*
X194100000Y-107670000D03*
%TD*%
D10*
%TO.N,N/C*%
%TO.C,MX LED*%
X133985000Y-97790000D03*
X127635000Y-100330000D03*
D11*
X127845000Y-107670000D03*
X130345000Y-107670000D03*
X132545000Y-107670000D03*
X135045000Y-107670000D03*
%TD*%
D10*
%TO.N,N/C*%
%TO.C,MX LED*%
X153670000Y-97790000D03*
X147320000Y-100330000D03*
D11*
X147530000Y-107670000D03*
X150030000Y-107670000D03*
X152230000Y-107670000D03*
X154730000Y-107670000D03*
%TD*%
D10*
%TO.N,N/C*%
%TO.C,MX LED*%
X173355000Y-97790000D03*
X167005000Y-100330000D03*
D11*
X167215000Y-107670000D03*
X169715000Y-107670000D03*
X171915000Y-107670000D03*
X174415000Y-107670000D03*
%TD*%
D10*
%TO.N,N/C*%
%TO.C,MX LED*%
X193040000Y-78105000D03*
X186690000Y-80645000D03*
D11*
X186900000Y-87985000D03*
X189400000Y-87985000D03*
X191600000Y-87985000D03*
X194100000Y-87985000D03*
%TD*%
D10*
%TO.N,N/C*%
%TO.C,MX LED*%
X133985000Y-78105000D03*
X127635000Y-80645000D03*
D11*
X127845000Y-87985000D03*
X130345000Y-87985000D03*
X132545000Y-87985000D03*
X135045000Y-87985000D03*
%TD*%
D10*
%TO.N,N/C*%
%TO.C,MX LED*%
X153670000Y-78105000D03*
X147320000Y-80645000D03*
D11*
X147530000Y-87985000D03*
X150030000Y-87985000D03*
X152230000Y-87985000D03*
X154730000Y-87985000D03*
%TD*%
D10*
%TO.N,N/C*%
%TO.C,MX LED*%
X173355000Y-78105000D03*
X167005000Y-80645000D03*
D11*
X167215000Y-87985000D03*
X169715000Y-87985000D03*
X171915000Y-87985000D03*
X174415000Y-87985000D03*
%TD*%
D10*
%TO.N,N/C*%
%TO.C,MX LED*%
X173355000Y-58420000D03*
X167005000Y-60960000D03*
D11*
X167215000Y-68300000D03*
X169715000Y-68300000D03*
X171915000Y-68300000D03*
X174415000Y-68300000D03*
%TD*%
D10*
%TO.N,N/C*%
%TO.C,MX LED*%
X193040000Y-58420000D03*
X186690000Y-60960000D03*
D11*
X186900000Y-68300000D03*
X189400000Y-68300000D03*
X191600000Y-68300000D03*
X194100000Y-68300000D03*
%TD*%
D10*
%TO.N,N/C*%
%TO.C,MX LED*%
X153670000Y-58420000D03*
X147320000Y-60960000D03*
D11*
X147530000Y-68300000D03*
X150030000Y-68300000D03*
X152230000Y-68300000D03*
X154730000Y-68300000D03*
%TD*%
%TO.N,N/C*%
%TO.C,MX LED*%
X135045000Y-68300000D03*
X132545000Y-68300000D03*
X130345000Y-68300000D03*
X127845000Y-68300000D03*
D10*
X127635000Y-60960000D03*
X133985000Y-58420000D03*
%TD*%
D12*
%TO.N,N/C*%
%TO.C,PIN1*%
X200025000Y-115570000D03*
%TD*%
%TO.N,N/C*%
%TO.C,PIN1*%
X200025000Y-76200000D03*
%TD*%
%TO.N,N/C*%
%TO.C,LED*%
X200025000Y-90805000D03*
%TD*%
D11*
%TO.N,N/C*%
%TO.C,LED*%
X169545000Y-133350000D03*
D13*
X172085000Y-133350000D03*
X174625000Y-133350000D03*
%TD*%
D12*
%TO.N,N/C*%
%TO.C,PIN1*%
X200025000Y-56515000D03*
%TD*%
D11*
%TO.N,N/C*%
%TO.C,LED*%
X149860000Y-133350000D03*
D13*
X152400000Y-133350000D03*
X154940000Y-133350000D03*
%TD*%
D12*
%TO.N,N/C*%
%TO.C,LED*%
X200025000Y-71120000D03*
%TD*%
%TO.N,N/C*%
%TO.C,LED*%
X200025000Y-130175000D03*
%TD*%
D11*
%TO.N,N/C*%
%TO.C,LED*%
X130175000Y-133350000D03*
D13*
X132715000Y-133350000D03*
X135255000Y-133350000D03*
%TD*%
D11*
%TO.N,N/C*%
%TO.C,PIN2*%
X183515000Y-133350000D03*
%TD*%
%TO.N,N/C*%
%TO.C,PIN2*%
X144145000Y-133350000D03*
%TD*%
%TO.N,N/C*%
%TO.C,PIN2*%
X163830000Y-133350000D03*
%TD*%
D12*
%TO.N,N/C*%
%TO.C,PIN1*%
X200025000Y-95885000D03*
%TD*%
%TO.N,N/C*%
%TO.C,LED*%
X200025000Y-110490000D03*
%TD*%
D11*
%TO.N,N/C*%
%TO.C,PIN2*%
X124460000Y-133350000D03*
%TD*%
%TO.N,N/C*%
%TO.C,LED*%
X189230000Y-133350000D03*
D13*
X191770000Y-133350000D03*
X194310000Y-133350000D03*
%TD*%
D14*
%TO.N,*%
X180340000Y-97155000D03*
X140970000Y-77470000D03*
X140970000Y-88900000D03*
X160655000Y-57785000D03*
X160655000Y-97155000D03*
X200025000Y-69215000D03*
X200025000Y-128270000D03*
X140970000Y-57785000D03*
X180340000Y-108585000D03*
X160655000Y-88900000D03*
X200025000Y-88900000D03*
X140970000Y-69215000D03*
X140970000Y-108585000D03*
X180340000Y-88900000D03*
X140970000Y-116840000D03*
X180340000Y-57785000D03*
X140970000Y-97155000D03*
X180340000Y-69215000D03*
X180340000Y-128270000D03*
X160655000Y-116840000D03*
X160655000Y-77470000D03*
X160655000Y-108585000D03*
X180340000Y-77470000D03*
X200025000Y-108585000D03*
X180340000Y-116840000D03*
X160655000Y-128270000D03*
X140970000Y-128270000D03*
X160655000Y-69215000D03*
%TD*%
D15*
%TO.N,*%
X160655000Y-88900000D02*
X158750000Y-88900000D01*
X181610000Y-115570000D02*
X180340000Y-116840000D01*
X186055000Y-97790000D02*
X184150000Y-95885000D01*
X198120000Y-88900000D02*
X196850000Y-87630000D01*
X161925000Y-56515000D02*
X171450000Y-56515000D01*
X161925000Y-56515000D02*
X160655000Y-57785000D01*
X200025000Y-69215000D02*
X198120000Y-69215000D01*
X139065000Y-69215000D02*
X137795000Y-67945000D01*
X177165000Y-87630000D02*
X177165000Y-81915000D01*
X177165000Y-121285000D02*
X173355000Y-117475000D01*
X137795000Y-121285000D02*
X133985000Y-117475000D01*
X142240000Y-115570000D02*
X140970000Y-116840000D01*
X157480000Y-121285000D02*
X153670000Y-117475000D01*
X157480000Y-107315000D02*
X157480000Y-101600000D01*
X198120000Y-128270000D02*
X196850000Y-127000000D01*
X178435000Y-88900000D02*
X177165000Y-87630000D01*
X137795000Y-81915000D02*
X133985000Y-78105000D01*
X180340000Y-88900000D02*
X178435000Y-88900000D01*
X198120000Y-108585000D02*
X196850000Y-107315000D01*
X158750000Y-88900000D02*
X157480000Y-87630000D01*
X196850000Y-87630000D02*
X196850000Y-81915000D01*
X157480000Y-127000000D02*
X157480000Y-121285000D01*
X158750000Y-69215000D02*
X157480000Y-67945000D01*
X171450000Y-76200000D02*
X173355000Y-78105000D01*
X177165000Y-81915000D02*
X173355000Y-78105000D01*
X181610000Y-95885000D02*
X180340000Y-97155000D01*
X161925000Y-115570000D02*
X160655000Y-116840000D01*
X178435000Y-108585000D02*
X177165000Y-107315000D01*
X200025000Y-108585000D02*
X198120000Y-108585000D01*
X140970000Y-88900000D02*
X139065000Y-88900000D01*
X186055000Y-78105000D02*
X184150000Y-76200000D01*
X177165000Y-101600000D02*
X173355000Y-97790000D01*
X200025000Y-128270000D02*
X198120000Y-128270000D01*
X161925000Y-115570000D02*
X171450000Y-115570000D01*
X177165000Y-107315000D02*
X177165000Y-101600000D01*
X184150000Y-95885000D02*
X181610000Y-95885000D01*
X158750000Y-108585000D02*
X157480000Y-107315000D01*
X137795000Y-62230000D02*
X133985000Y-58420000D01*
X137795000Y-127000000D02*
X137795000Y-121285000D01*
X142240000Y-56515000D02*
X151765000Y-56515000D01*
X151765000Y-56515000D02*
X153670000Y-58420000D01*
X184150000Y-76200000D02*
X181610000Y-76200000D01*
X157480000Y-62230000D02*
X153670000Y-58420000D01*
X160655000Y-69215000D02*
X158750000Y-69215000D01*
X181610000Y-76200000D02*
X180340000Y-77470000D01*
X198120000Y-69215000D02*
X196850000Y-67945000D01*
X157480000Y-81915000D02*
X153670000Y-78105000D01*
X186055000Y-117475000D02*
X184150000Y-115570000D01*
X142240000Y-56515000D02*
X140970000Y-57785000D01*
X137795000Y-101600000D02*
X133985000Y-97790000D01*
X193040000Y-78105000D02*
X186055000Y-78105000D01*
X180340000Y-108585000D02*
X178435000Y-108585000D01*
X151765000Y-115570000D02*
X153670000Y-117475000D01*
X142240000Y-115570000D02*
X151765000Y-115570000D01*
X137795000Y-87630000D02*
X137795000Y-81915000D01*
X139065000Y-88900000D02*
X137795000Y-87630000D01*
X171450000Y-56515000D02*
X173355000Y-58420000D01*
X180340000Y-128270000D02*
X178435000Y-128270000D01*
X140970000Y-69215000D02*
X139065000Y-69215000D01*
X200025000Y-88900000D02*
X198120000Y-88900000D01*
X178435000Y-128270000D02*
X177165000Y-127000000D01*
X177165000Y-127000000D02*
X177165000Y-121285000D01*
X140970000Y-128270000D02*
X139065000Y-128270000D01*
X139065000Y-128270000D02*
X137795000Y-127000000D01*
X161925000Y-95885000D02*
X160655000Y-97155000D01*
X178435000Y-69215000D02*
X177165000Y-67945000D01*
X151765000Y-76200000D02*
X153670000Y-78105000D01*
X160655000Y-108585000D02*
X158750000Y-108585000D01*
X177165000Y-67945000D02*
X177165000Y-62230000D01*
X142240000Y-76200000D02*
X151765000Y-76200000D01*
X157480000Y-87630000D02*
X157480000Y-81915000D01*
X184150000Y-115570000D02*
X181610000Y-115570000D01*
X140970000Y-108585000D02*
X139065000Y-108585000D01*
X161925000Y-76200000D02*
X160655000Y-77470000D01*
X142240000Y-95885000D02*
X140970000Y-97155000D01*
X171450000Y-95885000D02*
X173355000Y-97790000D01*
X161925000Y-76200000D02*
X171450000Y-76200000D01*
X181610000Y-56515000D02*
X180340000Y-57785000D01*
X180340000Y-69215000D02*
X178435000Y-69215000D01*
X158750000Y-128270000D02*
X157480000Y-127000000D01*
X196850000Y-127000000D02*
X196850000Y-121285000D01*
X139065000Y-108585000D02*
X137795000Y-107315000D01*
X142240000Y-95885000D02*
X151765000Y-95885000D01*
X160655000Y-128270000D02*
X158750000Y-128270000D01*
X193040000Y-58420000D02*
X186055000Y-58420000D01*
X196850000Y-101600000D02*
X193040000Y-97790000D01*
X186055000Y-58420000D02*
X184150000Y-56515000D01*
X142240000Y-76200000D02*
X140970000Y-77470000D01*
X196850000Y-107315000D02*
X196850000Y-101600000D01*
X193040000Y-117475000D02*
X186055000Y-117475000D01*
X157480000Y-101600000D02*
X153670000Y-97790000D01*
X177165000Y-62230000D02*
X173355000Y-58420000D01*
X196850000Y-81915000D02*
X193040000Y-78105000D01*
X196850000Y-62230000D02*
X193040000Y-58420000D01*
X196850000Y-67945000D02*
X196850000Y-62230000D01*
X137795000Y-67945000D02*
X137795000Y-62230000D01*
X196850000Y-121285000D02*
X193040000Y-117475000D01*
X157480000Y-67945000D02*
X157480000Y-62230000D01*
X193040000Y-97790000D02*
X186055000Y-97790000D01*
X161925000Y-95885000D02*
X171450000Y-95885000D01*
X184150000Y-56515000D02*
X181610000Y-56515000D01*
X151765000Y-95885000D02*
X153670000Y-97790000D01*
X137795000Y-107315000D02*
X137795000Y-101600000D01*
X171450000Y-115570000D02*
X173355000Y-117475000D01*
%TD*%
M02*
