M48
; DRILL file {KiCad 5.99.0-unknown-0ab82ef66~91~ubuntu20.04.1} date Thu Oct 15 20:07:45 2020
; FORMAT={-:-/ absolute / inch / decimal}
; #@! TF.CreationDate,2020-10-15T20:07:45+02:00
; #@! TF.GenerationSoftware,Kicad,Pcbnew,5.99.0-unknown-0ab82ef66~91~ubuntu20.04.1
; #@! TF.FileFunction,Plated,1,4,PTH
FMAT,2
INCH
T1C0.0157
T2C0.0394
T3C0.0453
T4C0.0590
%
G90
G05
T1
X5.55Y-2.275
X5.55Y-2.725
X5.55Y-3.05
X5.55Y-3.5
X5.55Y-3.825
X5.55Y-4.275
X5.55Y-4.6
X5.55Y-5.05
X6.325Y-2.275
X6.325Y-2.725
X6.325Y-3.05
X6.325Y-3.5
X6.325Y-3.825
X6.325Y-4.275
X6.325Y-4.6
X6.325Y-5.05
X7.1Y-2.275
X7.1Y-2.725
X7.1Y-3.05
X7.1Y-3.5
X7.1Y-3.825
X7.1Y-4.275
X7.1Y-4.6
X7.1Y-5.05
X7.875Y-2.725
X7.875Y-3.5
X7.875Y-4.275
X7.875Y-5.05
T2
X7.875Y-4.35
X7.875Y-3.0
X5.675Y-5.25
X6.675Y-5.25
X6.775Y-5.25
X6.875Y-5.25
X7.875Y-2.225
X7.875Y-3.775
X7.225Y-5.25
X5.125Y-5.25
X5.225Y-5.25
X5.325Y-5.25
X7.45Y-5.25
X7.55Y-5.25
X7.65Y-5.25
X6.45Y-5.25
X4.9Y-5.25
X5.9Y-5.25
X6.0Y-5.25
X6.1Y-5.25
X7.875Y-4.55
X7.875Y-3.575
X7.875Y-5.125
X7.875Y-2.8
T3
X5.0333Y-3.464
X5.1317Y-3.464
X5.2183Y-3.464
X5.3167Y-3.464
X6.5833Y-4.239
X6.6817Y-4.239
X6.7683Y-4.239
X6.8667Y-4.239
X5.8083Y-5.014
X5.9067Y-5.014
X5.9933Y-5.014
X6.0917Y-5.014
X5.0333Y-2.689
X5.1317Y-2.689
X5.2183Y-2.689
X5.3167Y-2.689
X5.8083Y-4.239
X5.9067Y-4.239
X5.9933Y-4.239
X6.0917Y-4.239
X7.3583Y-5.014
X7.4567Y-5.014
X7.5433Y-5.014
X7.6417Y-5.014
X6.5833Y-2.689
X6.6817Y-2.689
X6.7683Y-2.689
X6.8667Y-2.689
X5.8083Y-3.464
X5.9067Y-3.464
X5.9933Y-3.464
X6.0917Y-3.464
X7.3583Y-3.464
X7.4567Y-3.464
X7.5433Y-3.464
X7.6417Y-3.464
X5.0333Y-5.014
X5.1317Y-5.014
X5.2183Y-5.014
X5.3167Y-5.014
X6.5833Y-3.464
X6.6817Y-3.464
X6.7683Y-3.464
X6.8667Y-3.464
X5.0333Y-4.239
X5.1317Y-4.239
X5.2183Y-4.239
X5.3167Y-4.239
X7.3583Y-4.239
X7.4567Y-4.239
X7.5433Y-4.239
X7.6417Y-4.239
X6.5833Y-5.014
X6.6817Y-5.014
X6.7683Y-5.014
X6.8667Y-5.014
X7.3583Y-2.689
X7.4567Y-2.689
X7.5433Y-2.689
X7.6417Y-2.689
X5.8083Y-2.689
X5.9067Y-2.689
X5.9933Y-2.689
X6.0917Y-2.689
T4
X5.025Y-3.95
X5.275Y-3.85
X7.35Y-3.95
X7.6Y-3.85
X6.575Y-4.725
X6.825Y-4.625
X7.35Y-2.4
X7.6Y-2.3
X5.8Y-2.4
X6.05Y-2.3
X5.025Y-3.175
X5.275Y-3.075
X6.575Y-3.95
X6.825Y-3.85
X5.8Y-4.725
X6.05Y-4.625
X5.025Y-2.4
X5.275Y-2.3
X5.8Y-3.95
X6.05Y-3.85
X7.35Y-4.725
X7.6Y-4.625
X6.575Y-2.4
X6.825Y-2.3
X5.8Y-3.175
X6.05Y-3.075
X7.35Y-3.175
X7.6Y-3.075
X5.025Y-4.725
X5.275Y-4.625
X6.575Y-3.175
X6.825Y-3.075
T0
M30
