%TF.GenerationSoftware,KiCad,Pcbnew,5.99.0-unknown-0ab82ef66~91~ubuntu20.04.1*%
%TF.CreationDate,2020-10-15T20:07:39+02:00*%
%TF.ProjectId,KeyPad-LED,4b657950-6164-42d4-9c45-442e6b696361,rev?*%
%TF.SameCoordinates,Original*%
%TF.FileFunction,Paste,Bot*%
%TF.FilePolarity,Positive*%
%FSLAX46Y46*%
G04 Gerber Fmt 4.6, Leading zero omitted, Abs format (unit mm)*
G04 Created by KiCad (PCBNEW 5.99.0-unknown-0ab82ef66~91~ubuntu20.04.1) date 2020-10-15 20:07:39*
%MOMM*%
%LPD*%
G01*
G04 APERTURE LIST*
%ADD10R,2.300000X3.500000*%
G04 APERTURE END LIST*
D10*
%TO.C,SMD1*%
X140970000Y-85885000D03*
X140970000Y-80485000D03*
%TD*%
%TO.C,SMD1*%
X180340000Y-105570000D03*
X180340000Y-100170000D03*
%TD*%
%TO.C,SMD1*%
X140970000Y-66200000D03*
X140970000Y-60800000D03*
%TD*%
%TO.C,SMD1*%
X160655000Y-85885000D03*
X160655000Y-80485000D03*
%TD*%
%TO.C,SMD1*%
X180340000Y-85885000D03*
X180340000Y-80485000D03*
%TD*%
%TO.C,SMD1*%
X180340000Y-125255000D03*
X180340000Y-119855000D03*
%TD*%
%TO.C,SMD1*%
X200025000Y-105570000D03*
X200025000Y-100170000D03*
%TD*%
%TO.C,SMD1*%
X160655000Y-125255000D03*
X160655000Y-119855000D03*
%TD*%
%TO.C,SMD1*%
X200025000Y-66200000D03*
X200025000Y-60800000D03*
%TD*%
%TO.C,SMD1*%
X180340000Y-66200000D03*
X180340000Y-60800000D03*
%TD*%
%TO.C,SMD1*%
X140970000Y-125255000D03*
X140970000Y-119855000D03*
%TD*%
%TO.C,SMD1*%
X200025000Y-125255000D03*
X200025000Y-119855000D03*
%TD*%
%TO.C,SMD1*%
X140970000Y-105570000D03*
X140970000Y-100170000D03*
%TD*%
%TO.C,SMD1*%
X160655000Y-66200000D03*
X160655000Y-60800000D03*
%TD*%
%TO.C,SMD1*%
X160655000Y-105570000D03*
X160655000Y-100170000D03*
%TD*%
%TO.C,SMD1*%
X200025000Y-85885000D03*
X200025000Y-80485000D03*
%TD*%
M02*
