<?xml version="1.0"?>
<svg xmlns="http://www.w3.org/2000/svg" xmlns:lc="http://www.librecad.org" xmlns:xlink="http://www.w3.org/1999/xlink" width="298in" height="596in" viewBox="0 0 298 596">
    <g lc:layername="0" lc:is_locked="false" lc:is_construction="false" fill="none" stroke="black" stroke-width="1">
        <path d="M28,564 L30,564 L30,454 L28,454 L28,564 Z "/>
        <path d="M53,564 L55,564 L55,454 L53,454 L53,564 Z "/>
        <path d="M78,564 L80,564 L80,454 L78,454 L78,564 Z "/>
        <path d="M58,318 L224.5,318 L224.5,419 L58,419 L58,318 Z "/>
        <path d="M178,568 L233,568 L233,495 L178,495 L178,568 Z "/>
        <circle cx="198" cy="458" r="5.35"/>
    </g>
    <g lc:layername="back_outsideCutPath" lc:is_locked="false" lc:is_construction="false" fill="none" stroke="black" stroke-width="1"/>
    <g lc:layername="bottom_outsideCutPath" lc:is_locked="false" lc:is_construction="false" fill="none" stroke="black" stroke-width="1">
        <line x1="4" y1="4" x2="4" y2="23"/>
        <line x1="4" y1="23" x2="0" y2="23"/>
        <line x1="0" y1="23" x2="0" y2="35"/>
        <line x1="0" y1="35" x2="4" y2="35"/>
        <line x1="4" y1="35" x2="4" y2="47"/>
        <line x1="4" y1="47" x2="0" y2="47"/>
        <line x1="0" y1="47" x2="0" y2="59"/>
        <line x1="0" y1="59" x2="4" y2="59"/>
        <line x1="4" y1="59" x2="4" y2="71"/>
        <line x1="4" y1="71" x2="0" y2="71"/>
        <line x1="0" y1="71" x2="0" y2="83"/>
        <line x1="0" y1="83" x2="4" y2="83"/>
        <line x1="4" y1="83" x2="4" y2="95"/>
        <line x1="4" y1="95" x2="0" y2="95"/>
        <line x1="0" y1="95" x2="0" y2="107"/>
        <line x1="0" y1="107" x2="4" y2="107"/>
        <line x1="4" y1="107" x2="4" y2="119"/>
        <line x1="4" y1="119" x2="0" y2="119"/>
        <line x1="0" y1="119" x2="0" y2="131"/>
        <line x1="0" y1="131" x2="4" y2="131"/>
        <line x1="4" y1="131" x2="4" y2="143"/>
        <line x1="4" y1="143" x2="0" y2="143"/>
        <line x1="0" y1="143" x2="0" y2="155"/>
        <line x1="0" y1="155" x2="4" y2="155"/>
        <line x1="4" y1="155" x2="4" y2="167"/>
        <line x1="4" y1="167" x2="0" y2="167"/>
        <line x1="0" y1="167" x2="0" y2="179"/>
        <line x1="0" y1="179" x2="4" y2="179"/>
        <line x1="4" y1="179" x2="4" y2="191"/>
        <line x1="4" y1="191" x2="0" y2="191"/>
        <line x1="0" y1="191" x2="0" y2="203"/>
        <line x1="0" y1="203" x2="4" y2="203"/>
        <line x1="4" y1="203" x2="4" y2="215"/>
        <line x1="4" y1="215" x2="0" y2="215"/>
        <line x1="0" y1="215" x2="0" y2="227"/>
        <line x1="0" y1="227" x2="4" y2="227"/>
        <line x1="4" y1="227" x2="4" y2="239"/>
        <line x1="4" y1="239" x2="0" y2="239"/>
        <line x1="0" y1="239" x2="0" y2="251"/>
        <line x1="0" y1="251" x2="4" y2="251"/>
        <line x1="4" y1="251" x2="4" y2="263"/>
        <line x1="4" y1="263" x2="0" y2="263"/>
        <line x1="0" y1="263" x2="0" y2="275"/>
        <line x1="0" y1="275" x2="4" y2="275"/>
        <line x1="4" y1="275" x2="4" y2="287"/>
        <line x1="4" y1="287" x2="4" y2="294"/>
        <line x1="4" y1="294" x2="23" y2="294"/>
        <line x1="23" y1="294" x2="23" y2="298"/>
        <line x1="23" y1="298" x2="35" y2="298"/>
        <line x1="35" y1="298" x2="35" y2="294"/>
        <line x1="35" y1="294" x2="47" y2="294"/>
        <line x1="47" y1="294" x2="47" y2="298"/>
        <line x1="47" y1="298" x2="59" y2="298"/>
        <line x1="59" y1="298" x2="59" y2="294"/>
        <line x1="59" y1="294" x2="71" y2="294"/>
        <line x1="71" y1="294" x2="71" y2="298"/>
        <line x1="71" y1="298" x2="83" y2="298"/>
        <line x1="83" y1="298" x2="83" y2="294"/>
        <line x1="83" y1="294" x2="95" y2="294"/>
        <line x1="95" y1="294" x2="95" y2="298"/>
        <line x1="95" y1="298" x2="107" y2="298"/>
        <line x1="107" y1="298" x2="107" y2="294"/>
        <line x1="107" y1="294" x2="119" y2="294"/>
        <line x1="119" y1="294" x2="119" y2="298"/>
        <line x1="119" y1="298" x2="131" y2="298"/>
        <line x1="131" y1="298" x2="131" y2="294"/>
        <line x1="131" y1="294" x2="143" y2="294"/>
        <line x1="143" y1="294" x2="143" y2="298"/>
        <line x1="143" y1="298" x2="155" y2="298"/>
        <line x1="155" y1="298" x2="155" y2="294"/>
        <line x1="155" y1="294" x2="167" y2="294"/>
        <line x1="167" y1="294" x2="167" y2="298"/>
        <line x1="167" y1="298" x2="179" y2="298"/>
        <line x1="179" y1="298" x2="179" y2="294"/>
        <line x1="179" y1="294" x2="191" y2="294"/>
        <line x1="191" y1="294" x2="191" y2="298"/>
        <line x1="191" y1="298" x2="203" y2="298"/>
        <line x1="203" y1="298" x2="203" y2="294"/>
        <line x1="203" y1="294" x2="215" y2="294"/>
        <line x1="215" y1="294" x2="215" y2="298"/>
        <line x1="215" y1="298" x2="227" y2="298"/>
        <line x1="227" y1="298" x2="227" y2="294"/>
        <line x1="227" y1="294" x2="239" y2="294"/>
        <line x1="239" y1="294" x2="239" y2="298"/>
        <line x1="239" y1="298" x2="251" y2="298"/>
        <line x1="251" y1="298" x2="251" y2="294"/>
        <line x1="251" y1="294" x2="263" y2="294"/>
        <line x1="263" y1="294" x2="263" y2="298"/>
        <line x1="263" y1="298" x2="275" y2="298"/>
        <line x1="275" y1="298" x2="275" y2="294"/>
        <line x1="275" y1="294" x2="287" y2="294"/>
        <line x1="287" y1="294" x2="294" y2="294"/>
        <line x1="294" y1="294" x2="294" y2="275"/>
        <line x1="294" y1="275" x2="298" y2="275"/>
        <line x1="298" y1="275" x2="298" y2="263"/>
        <line x1="298" y1="263" x2="294" y2="263"/>
        <line x1="294" y1="263" x2="294" y2="251"/>
        <line x1="294" y1="251" x2="298" y2="251"/>
        <line x1="298" y1="251" x2="298" y2="239"/>
        <line x1="298" y1="239" x2="294" y2="239"/>
        <line x1="294" y1="239" x2="294" y2="227"/>
        <line x1="294" y1="227" x2="298" y2="227"/>
        <line x1="298" y1="227" x2="298" y2="215"/>
        <line x1="298" y1="215" x2="294" y2="215"/>
        <line x1="294" y1="215" x2="294" y2="203"/>
        <line x1="294" y1="203" x2="298" y2="203"/>
        <line x1="298" y1="203" x2="298" y2="191"/>
        <line x1="298" y1="191" x2="294" y2="191"/>
        <line x1="294" y1="191" x2="294" y2="179"/>
        <line x1="294" y1="179" x2="298" y2="179"/>
        <line x1="298" y1="179" x2="298" y2="167"/>
        <line x1="298" y1="167" x2="294" y2="167"/>
        <line x1="294" y1="167" x2="294" y2="155"/>
        <line x1="294" y1="155" x2="298" y2="155"/>
        <line x1="298" y1="155" x2="298" y2="143"/>
        <line x1="298" y1="143" x2="294" y2="143"/>
        <line x1="294" y1="143" x2="294" y2="131"/>
        <line x1="294" y1="131" x2="298" y2="131"/>
        <line x1="298" y1="131" x2="298" y2="119"/>
        <line x1="298" y1="119" x2="294" y2="119"/>
        <line x1="294" y1="119" x2="294" y2="107"/>
        <line x1="294" y1="107" x2="298" y2="107"/>
        <line x1="298" y1="107" x2="298" y2="95"/>
        <line x1="298" y1="95" x2="294" y2="95"/>
        <line x1="294" y1="95" x2="294" y2="83"/>
        <line x1="294" y1="83" x2="298" y2="83"/>
        <line x1="298" y1="83" x2="298" y2="71"/>
        <line x1="298" y1="71" x2="294" y2="71"/>
        <line x1="294" y1="71" x2="294" y2="59"/>
        <line x1="294" y1="59" x2="298" y2="59"/>
        <line x1="298" y1="59" x2="298" y2="47"/>
        <line x1="298" y1="47" x2="294" y2="47"/>
        <line x1="294" y1="47" x2="294" y2="35"/>
        <line x1="294" y1="35" x2="298" y2="35"/>
        <line x1="298" y1="35" x2="298" y2="23"/>
        <line x1="298" y1="23" x2="294" y2="23"/>
        <line x1="294" y1="23" x2="294" y2="11"/>
        <line x1="294" y1="11" x2="294" y2="4"/>
        <line x1="294" y1="4" x2="275" y2="4"/>
        <line x1="275" y1="4" x2="275" y2="0"/>
        <line x1="275" y1="0" x2="263" y2="0"/>
        <line x1="263" y1="0" x2="263" y2="4"/>
        <line x1="263" y1="4" x2="251" y2="4"/>
        <line x1="251" y1="4" x2="251" y2="0"/>
        <line x1="251" y1="0" x2="239" y2="0"/>
        <line x1="239" y1="0" x2="239" y2="4"/>
        <line x1="239" y1="4" x2="227" y2="4"/>
        <line x1="227" y1="4" x2="227" y2="0"/>
        <line x1="227" y1="0" x2="215" y2="0"/>
        <line x1="215" y1="0" x2="215" y2="4"/>
        <line x1="215" y1="4" x2="203" y2="4"/>
        <line x1="203" y1="4" x2="203" y2="0"/>
        <line x1="203" y1="0" x2="191" y2="0"/>
        <line x1="191" y1="0" x2="191" y2="4"/>
        <line x1="191" y1="4" x2="179" y2="4"/>
        <line x1="179" y1="4" x2="179" y2="0"/>
        <line x1="179" y1="0" x2="167" y2="0"/>
        <line x1="167" y1="0" x2="167" y2="4"/>
        <line x1="167" y1="4" x2="155" y2="4"/>
        <line x1="155" y1="4" x2="155" y2="0"/>
        <line x1="155" y1="0" x2="143" y2="0"/>
        <line x1="143" y1="0" x2="143" y2="4"/>
        <line x1="143" y1="4" x2="131" y2="4"/>
        <line x1="131" y1="4" x2="131" y2="0"/>
        <line x1="131" y1="0" x2="119" y2="0"/>
        <line x1="119" y1="0" x2="119" y2="4"/>
        <line x1="119" y1="4" x2="107" y2="4"/>
        <line x1="107" y1="4" x2="107" y2="0"/>
        <line x1="107" y1="0" x2="95" y2="0"/>
        <line x1="95" y1="0" x2="95" y2="4"/>
        <line x1="95" y1="4" x2="83" y2="4"/>
        <line x1="83" y1="4" x2="83" y2="0"/>
        <line x1="83" y1="0" x2="71" y2="0"/>
        <line x1="71" y1="0" x2="71" y2="4"/>
        <line x1="71" y1="4" x2="59" y2="4"/>
        <line x1="59" y1="4" x2="59" y2="0"/>
        <line x1="59" y1="0" x2="47" y2="0"/>
        <line x1="47" y1="0" x2="47" y2="4"/>
        <line x1="47" y1="4" x2="35" y2="4"/>
        <line x1="35" y1="4" x2="35" y2="0"/>
        <line x1="35" y1="0" x2="23" y2="0"/>
        <line x1="23" y1="0" x2="23" y2="4"/>
        <line x1="23" y1="4" x2="11" y2="4"/>
        <line x1="11" y1="4" x2="4" y2="4"/>
    </g>
    <g lc:layername="front_outsideCutPath" lc:is_locked="false" lc:is_construction="false" fill="none" stroke="black" stroke-width="1"/>
    <g lc:layername="left_outsideCutPath" lc:is_locked="false" lc:is_construction="false" fill="none" stroke="black" stroke-width="1"/>
    <g lc:layername="right_outsideCutPath" lc:is_locked="false" lc:is_construction="false" fill="none" stroke="black" stroke-width="1"/>
    <g lc:layername="top_outsideCutPath" lc:is_locked="false" lc:is_construction="false" fill="none" stroke="black" stroke-width="1">
        <line x1="4" y1="302" x2="4" y2="321"/>
        <line x1="4" y1="321" x2="0" y2="321"/>
        <line x1="0" y1="321" x2="0" y2="333"/>
        <line x1="0" y1="333" x2="4" y2="333"/>
        <line x1="4" y1="333" x2="4" y2="345"/>
        <line x1="4" y1="345" x2="0" y2="345"/>
        <line x1="0" y1="345" x2="0" y2="357"/>
        <line x1="0" y1="357" x2="4" y2="357"/>
        <line x1="4" y1="357" x2="4" y2="369"/>
        <line x1="4" y1="369" x2="0" y2="369"/>
        <line x1="0" y1="369" x2="0" y2="381"/>
        <line x1="0" y1="381" x2="4" y2="381"/>
        <line x1="4" y1="381" x2="4" y2="393"/>
        <line x1="4" y1="393" x2="0" y2="393"/>
        <line x1="0" y1="393" x2="0" y2="405"/>
        <line x1="0" y1="405" x2="4" y2="405"/>
        <line x1="4" y1="405" x2="4" y2="417"/>
        <line x1="4" y1="417" x2="0" y2="417"/>
        <line x1="0" y1="417" x2="0" y2="429"/>
        <line x1="0" y1="429" x2="4" y2="429"/>
        <line x1="4" y1="429" x2="4" y2="441"/>
        <line x1="4" y1="441" x2="0" y2="441"/>
        <line x1="0" y1="441" x2="0" y2="453"/>
        <line x1="0" y1="453" x2="4" y2="453"/>
        <line x1="4" y1="453" x2="4" y2="465"/>
        <line x1="4" y1="465" x2="0" y2="465"/>
        <line x1="0" y1="465" x2="0" y2="477"/>
        <line x1="0" y1="477" x2="4" y2="477"/>
        <line x1="4" y1="477" x2="4" y2="489"/>
        <line x1="4" y1="489" x2="0" y2="489"/>
        <line x1="0" y1="489" x2="0" y2="501"/>
        <line x1="0" y1="501" x2="4" y2="501"/>
        <line x1="4" y1="501" x2="4" y2="513"/>
        <line x1="4" y1="513" x2="0" y2="513"/>
        <line x1="0" y1="513" x2="0" y2="525"/>
        <line x1="0" y1="525" x2="4" y2="525"/>
        <line x1="4" y1="525" x2="4" y2="537"/>
        <line x1="4" y1="537" x2="0" y2="537"/>
        <line x1="0" y1="537" x2="0" y2="549"/>
        <line x1="0" y1="549" x2="4" y2="549"/>
        <line x1="4" y1="549" x2="4" y2="561"/>
        <line x1="4" y1="561" x2="0" y2="561"/>
        <line x1="0" y1="561" x2="0" y2="573"/>
        <line x1="0" y1="573" x2="4" y2="573"/>
        <line x1="4" y1="573" x2="4" y2="585"/>
        <line x1="4" y1="585" x2="4" y2="592"/>
        <line x1="4" y1="592" x2="23" y2="592"/>
        <line x1="23" y1="592" x2="23" y2="596"/>
        <line x1="23" y1="596" x2="35" y2="596"/>
        <line x1="35" y1="596" x2="35" y2="592"/>
        <line x1="35" y1="592" x2="47" y2="592"/>
        <line x1="47" y1="592" x2="47" y2="596"/>
        <line x1="47" y1="596" x2="59" y2="596"/>
        <line x1="59" y1="596" x2="59" y2="592"/>
        <line x1="59" y1="592" x2="71" y2="592"/>
        <line x1="71" y1="592" x2="71" y2="596"/>
        <line x1="71" y1="596" x2="83" y2="596"/>
        <line x1="83" y1="596" x2="83" y2="592"/>
        <line x1="83" y1="592" x2="95" y2="592"/>
        <line x1="95" y1="592" x2="95" y2="596"/>
        <line x1="95" y1="596" x2="107" y2="596"/>
        <line x1="107" y1="596" x2="107" y2="592"/>
        <line x1="107" y1="592" x2="119" y2="592"/>
        <line x1="119" y1="592" x2="119" y2="596"/>
        <line x1="119" y1="596" x2="131" y2="596"/>
        <line x1="131" y1="596" x2="131" y2="592"/>
        <line x1="131" y1="592" x2="143" y2="592"/>
        <line x1="143" y1="592" x2="143" y2="596"/>
        <line x1="143" y1="596" x2="155" y2="596"/>
        <line x1="155" y1="596" x2="155" y2="592"/>
        <line x1="155" y1="592" x2="167" y2="592"/>
        <line x1="167" y1="592" x2="167" y2="596"/>
        <line x1="167" y1="596" x2="179" y2="596"/>
        <line x1="179" y1="596" x2="179" y2="592"/>
        <line x1="179" y1="592" x2="191" y2="592"/>
        <line x1="191" y1="592" x2="191" y2="596"/>
        <line x1="191" y1="596" x2="203" y2="596"/>
        <line x1="203" y1="596" x2="203" y2="592"/>
        <line x1="203" y1="592" x2="215" y2="592"/>
        <line x1="215" y1="592" x2="215" y2="596"/>
        <line x1="215" y1="596" x2="227" y2="596"/>
        <line x1="227" y1="596" x2="227" y2="592"/>
        <line x1="227" y1="592" x2="239" y2="592"/>
        <line x1="239" y1="592" x2="239" y2="596"/>
        <line x1="239" y1="596" x2="251" y2="596"/>
        <line x1="251" y1="596" x2="251" y2="592"/>
        <line x1="251" y1="592" x2="263" y2="592"/>
        <line x1="263" y1="592" x2="263" y2="596"/>
        <line x1="263" y1="596" x2="275" y2="596"/>
        <line x1="275" y1="596" x2="275" y2="592"/>
        <line x1="275" y1="592" x2="287" y2="592"/>
        <line x1="287" y1="592" x2="294" y2="592"/>
        <line x1="294" y1="592" x2="294" y2="573"/>
        <line x1="294" y1="573" x2="298" y2="573"/>
        <line x1="298" y1="573" x2="298" y2="561"/>
        <line x1="298" y1="561" x2="294" y2="561"/>
        <line x1="294" y1="561" x2="294" y2="549"/>
        <line x1="294" y1="549" x2="298" y2="549"/>
        <line x1="298" y1="549" x2="298" y2="537"/>
        <line x1="298" y1="537" x2="294" y2="537"/>
        <line x1="294" y1="537" x2="294" y2="525"/>
        <line x1="294" y1="525" x2="298" y2="525"/>
        <line x1="298" y1="525" x2="298" y2="513"/>
        <line x1="298" y1="513" x2="294" y2="513"/>
        <line x1="294" y1="513" x2="294" y2="501"/>
        <line x1="294" y1="501" x2="298" y2="501"/>
        <line x1="298" y1="501" x2="298" y2="489"/>
        <line x1="298" y1="489" x2="294" y2="489"/>
        <line x1="294" y1="489" x2="294" y2="477"/>
        <line x1="294" y1="477" x2="298" y2="477"/>
        <line x1="298" y1="477" x2="298" y2="465"/>
        <line x1="298" y1="465" x2="294" y2="465"/>
        <line x1="294" y1="465" x2="294" y2="453"/>
        <line x1="294" y1="453" x2="298" y2="453"/>
        <line x1="298" y1="453" x2="298" y2="441"/>
        <line x1="298" y1="441" x2="294" y2="441"/>
        <line x1="294" y1="441" x2="294" y2="429"/>
        <line x1="294" y1="429" x2="298" y2="429"/>
        <line x1="298" y1="429" x2="298" y2="417"/>
        <line x1="298" y1="417" x2="294" y2="417"/>
        <line x1="294" y1="417" x2="294" y2="405"/>
        <line x1="294" y1="405" x2="298" y2="405"/>
        <line x1="298" y1="405" x2="298" y2="393"/>
        <line x1="298" y1="393" x2="294" y2="393"/>
        <line x1="294" y1="393" x2="294" y2="381"/>
        <line x1="294" y1="381" x2="298" y2="381"/>
        <line x1="298" y1="381" x2="298" y2="369"/>
        <line x1="298" y1="369" x2="294" y2="369"/>
        <line x1="294" y1="369" x2="294" y2="357"/>
        <line x1="294" y1="357" x2="298" y2="357"/>
        <line x1="298" y1="357" x2="298" y2="345"/>
        <line x1="298" y1="345" x2="294" y2="345"/>
        <line x1="294" y1="345" x2="294" y2="333"/>
        <line x1="294" y1="333" x2="298" y2="333"/>
        <line x1="298" y1="333" x2="298" y2="321"/>
        <line x1="298" y1="321" x2="294" y2="321"/>
        <line x1="294" y1="321" x2="294" y2="309"/>
        <line x1="294" y1="309" x2="294" y2="302"/>
        <line x1="294" y1="302" x2="275" y2="302"/>
        <line x1="275" y1="302" x2="275" y2="298"/>
        <line x1="263" y1="298" x2="263" y2="302"/>
        <line x1="263" y1="302" x2="251" y2="302"/>
        <line x1="251" y1="302" x2="251" y2="298"/>
        <line x1="239" y1="298" x2="239" y2="302"/>
        <line x1="239" y1="302" x2="227" y2="302"/>
        <line x1="227" y1="302" x2="227" y2="298"/>
        <line x1="215" y1="298" x2="215" y2="302"/>
        <line x1="215" y1="302" x2="203" y2="302"/>
        <line x1="203" y1="302" x2="203" y2="298"/>
        <line x1="191" y1="298" x2="191" y2="302"/>
        <line x1="191" y1="302" x2="179" y2="302"/>
        <line x1="179" y1="302" x2="179" y2="298"/>
        <line x1="167" y1="298" x2="167" y2="302"/>
        <line x1="167" y1="302" x2="155" y2="302"/>
        <line x1="155" y1="302" x2="155" y2="298"/>
        <line x1="143" y1="298" x2="143" y2="302"/>
        <line x1="143" y1="302" x2="131" y2="302"/>
        <line x1="131" y1="302" x2="131" y2="298"/>
        <line x1="119" y1="298" x2="119" y2="302"/>
        <line x1="119" y1="302" x2="107" y2="302"/>
        <line x1="107" y1="302" x2="107" y2="298"/>
        <line x1="95" y1="298" x2="95" y2="302"/>
        <line x1="95" y1="302" x2="83" y2="302"/>
        <line x1="83" y1="302" x2="83" y2="298"/>
        <line x1="71" y1="298" x2="71" y2="302"/>
        <line x1="71" y1="302" x2="59" y2="302"/>
        <line x1="59" y1="302" x2="59" y2="298"/>
        <line x1="47" y1="298" x2="47" y2="302"/>
        <line x1="47" y1="302" x2="35" y2="302"/>
        <line x1="35" y1="302" x2="35" y2="298"/>
        <line x1="23" y1="298" x2="23" y2="302"/>
        <line x1="23" y1="302" x2="11" y2="302"/>
        <line x1="11" y1="302" x2="4" y2="302"/>
    </g>
</svg>
