<?xml version="1.0"?>
<svg xmlns="http://www.w3.org/2000/svg" xmlns:lc="http://www.librecad.org" xmlns:xlink="http://www.w3.org/1999/xlink" width="592in" height="296in" viewBox="0 0 592 296">
    <g lc:layername="0" lc:is_locked="false" lc:is_construction="false" fill="none" stroke="black" stroke-width="1">
        <path d="M19,136 L153,136 L153,66.97744361 L19,66.97744361 L19,136 Z "/>
        <circle cx="261" cy="101" r="11"/>
        <circle cx="236" cy="101" r="11"/>
        <circle cx="211" cy="101" r="11"/>
        <circle cx="186" cy="101" r="11"/>
        <path d="M274,78 L168,78 L168,28 L274,28 L274,78 Z "/>
    </g>
    <g lc:layername="back_outsideCutPath" lc:is_locked="false" lc:is_construction="false" fill="none" stroke="black" stroke-width="1">
        <line x1="0" y1="0" x2="0" y2="20"/>
        <line x1="0" y1="20" x2="4" y2="20"/>
        <line x1="4" y1="20" x2="4" y2="32"/>
        <line x1="4" y1="32" x2="0" y2="32"/>
        <line x1="0" y1="32" x2="0" y2="44"/>
        <line x1="0" y1="44" x2="4" y2="44"/>
        <line x1="4" y1="44" x2="4" y2="56"/>
        <line x1="4" y1="56" x2="0" y2="56"/>
        <line x1="0" y1="56" x2="0" y2="68"/>
        <line x1="0" y1="68" x2="4" y2="68"/>
        <line x1="4" y1="68" x2="4" y2="80"/>
        <line x1="4" y1="80" x2="0" y2="80"/>
        <line x1="0" y1="80" x2="0" y2="92"/>
        <line x1="0" y1="92" x2="4" y2="92"/>
        <line x1="4" y1="92" x2="4" y2="104"/>
        <line x1="4" y1="104" x2="0" y2="104"/>
        <line x1="0" y1="104" x2="0" y2="116"/>
        <line x1="0" y1="116" x2="4" y2="116"/>
        <line x1="4" y1="116" x2="4" y2="128"/>
        <line x1="4" y1="128" x2="0" y2="128"/>
        <line x1="0" y1="128" x2="0" y2="140"/>
        <line x1="0" y1="140" x2="0" y2="148"/>
        <line x1="23" y1="148" x2="23" y2="144"/>
        <line x1="23" y1="144" x2="35" y2="144"/>
        <line x1="35" y1="144" x2="35" y2="148"/>
        <line x1="47" y1="148" x2="47" y2="144"/>
        <line x1="47" y1="144" x2="59" y2="144"/>
        <line x1="59" y1="144" x2="59" y2="148"/>
        <line x1="71" y1="148" x2="71" y2="144"/>
        <line x1="71" y1="144" x2="83" y2="144"/>
        <line x1="83" y1="144" x2="83" y2="148"/>
        <line x1="95" y1="148" x2="95" y2="144"/>
        <line x1="95" y1="144" x2="107" y2="144"/>
        <line x1="107" y1="144" x2="107" y2="148"/>
        <line x1="119" y1="148" x2="119" y2="144"/>
        <line x1="119" y1="144" x2="131" y2="144"/>
        <line x1="131" y1="144" x2="131" y2="148"/>
        <line x1="143" y1="148" x2="143" y2="144"/>
        <line x1="143" y1="144" x2="155" y2="144"/>
        <line x1="155" y1="144" x2="155" y2="148"/>
        <line x1="167" y1="148" x2="167" y2="144"/>
        <line x1="167" y1="144" x2="179" y2="144"/>
        <line x1="179" y1="144" x2="179" y2="148"/>
        <line x1="191" y1="148" x2="191" y2="144"/>
        <line x1="191" y1="144" x2="203" y2="144"/>
        <line x1="203" y1="144" x2="203" y2="148"/>
        <line x1="215" y1="148" x2="215" y2="144"/>
        <line x1="215" y1="144" x2="227" y2="144"/>
        <line x1="227" y1="144" x2="227" y2="148"/>
        <line x1="239" y1="148" x2="239" y2="144"/>
        <line x1="239" y1="144" x2="251" y2="144"/>
        <line x1="251" y1="144" x2="251" y2="148"/>
        <line x1="263" y1="148" x2="263" y2="144"/>
        <line x1="263" y1="144" x2="275" y2="144"/>
        <line x1="275" y1="144" x2="275" y2="148"/>
        <line x1="298" y1="0" x2="275" y2="0"/>
        <line x1="275" y1="0" x2="275" y2="4"/>
        <line x1="275" y1="4" x2="263" y2="4"/>
        <line x1="263" y1="4" x2="263" y2="0"/>
        <line x1="263" y1="0" x2="251" y2="0"/>
        <line x1="251" y1="0" x2="251" y2="4"/>
        <line x1="251" y1="4" x2="239" y2="4"/>
        <line x1="239" y1="4" x2="239" y2="0"/>
        <line x1="239" y1="0" x2="227" y2="0"/>
        <line x1="227" y1="0" x2="227" y2="4"/>
        <line x1="227" y1="4" x2="215" y2="4"/>
        <line x1="215" y1="4" x2="215" y2="0"/>
        <line x1="215" y1="0" x2="203" y2="0"/>
        <line x1="203" y1="0" x2="203" y2="4"/>
        <line x1="203" y1="4" x2="191" y2="4"/>
        <line x1="191" y1="4" x2="191" y2="0"/>
        <line x1="191" y1="0" x2="179" y2="0"/>
        <line x1="179" y1="0" x2="179" y2="4"/>
        <line x1="179" y1="4" x2="167" y2="4"/>
        <line x1="167" y1="4" x2="167" y2="0"/>
        <line x1="167" y1="0" x2="155" y2="0"/>
        <line x1="155" y1="0" x2="155" y2="4"/>
        <line x1="155" y1="4" x2="143" y2="4"/>
        <line x1="143" y1="4" x2="143" y2="0"/>
        <line x1="143" y1="0" x2="131" y2="0"/>
        <line x1="131" y1="0" x2="131" y2="4"/>
        <line x1="131" y1="4" x2="119" y2="4"/>
        <line x1="119" y1="4" x2="119" y2="0"/>
        <line x1="119" y1="0" x2="107" y2="0"/>
        <line x1="107" y1="0" x2="107" y2="4"/>
        <line x1="107" y1="4" x2="95" y2="4"/>
        <line x1="95" y1="4" x2="95" y2="0"/>
        <line x1="95" y1="0" x2="83" y2="0"/>
        <line x1="83" y1="0" x2="83" y2="4"/>
        <line x1="83" y1="4" x2="71" y2="4"/>
        <line x1="71" y1="4" x2="71" y2="0"/>
        <line x1="71" y1="0" x2="59" y2="0"/>
        <line x1="59" y1="0" x2="59" y2="4"/>
        <line x1="59" y1="4" x2="47" y2="4"/>
        <line x1="47" y1="4" x2="47" y2="0"/>
        <line x1="47" y1="0" x2="35" y2="0"/>
        <line x1="35" y1="0" x2="35" y2="4"/>
        <line x1="35" y1="4" x2="23" y2="4"/>
        <line x1="23" y1="4" x2="23" y2="0"/>
        <line x1="23" y1="0" x2="11" y2="0"/>
        <line x1="11" y1="0" x2="0" y2="0"/>
    </g>
    <g lc:layername="bottom_outsideCutPath" lc:is_locked="false" lc:is_construction="false" fill="none" stroke="black" stroke-width="1"/>
    <g lc:layername="front_outsideCutPath" lc:is_locked="false" lc:is_construction="false" fill="none" stroke="black" stroke-width="1">
        <line x1="0" y1="148" x2="0" y2="168"/>
        <line x1="0" y1="168" x2="4" y2="168"/>
        <line x1="4" y1="168" x2="4" y2="180"/>
        <line x1="4" y1="180" x2="0" y2="180"/>
        <line x1="0" y1="180" x2="0" y2="192"/>
        <line x1="0" y1="192" x2="4" y2="192"/>
        <line x1="4" y1="192" x2="4" y2="204"/>
        <line x1="4" y1="204" x2="0" y2="204"/>
        <line x1="0" y1="204" x2="0" y2="216"/>
        <line x1="0" y1="216" x2="4" y2="216"/>
        <line x1="4" y1="216" x2="4" y2="228"/>
        <line x1="4" y1="228" x2="0" y2="228"/>
        <line x1="0" y1="228" x2="0" y2="240"/>
        <line x1="0" y1="240" x2="4" y2="240"/>
        <line x1="4" y1="240" x2="4" y2="252"/>
        <line x1="4" y1="252" x2="0" y2="252"/>
        <line x1="0" y1="252" x2="0" y2="264"/>
        <line x1="0" y1="264" x2="4" y2="264"/>
        <line x1="4" y1="264" x2="4" y2="276"/>
        <line x1="4" y1="276" x2="0" y2="276"/>
        <line x1="0" y1="276" x2="0" y2="288"/>
        <line x1="0" y1="288" x2="0" y2="296"/>
        <line x1="0" y1="296" x2="23" y2="296"/>
        <line x1="23" y1="296" x2="23" y2="292"/>
        <line x1="23" y1="292" x2="35" y2="292"/>
        <line x1="35" y1="292" x2="35" y2="296"/>
        <line x1="35" y1="296" x2="47" y2="296"/>
        <line x1="47" y1="296" x2="47" y2="292"/>
        <line x1="47" y1="292" x2="59" y2="292"/>
        <line x1="59" y1="292" x2="59" y2="296"/>
        <line x1="59" y1="296" x2="71" y2="296"/>
        <line x1="71" y1="296" x2="71" y2="292"/>
        <line x1="71" y1="292" x2="83" y2="292"/>
        <line x1="83" y1="292" x2="83" y2="296"/>
        <line x1="83" y1="296" x2="95" y2="296"/>
        <line x1="95" y1="296" x2="95" y2="292"/>
        <line x1="95" y1="292" x2="107" y2="292"/>
        <line x1="107" y1="292" x2="107" y2="296"/>
        <line x1="107" y1="296" x2="119" y2="296"/>
        <line x1="119" y1="296" x2="119" y2="292"/>
        <line x1="119" y1="292" x2="131" y2="292"/>
        <line x1="131" y1="292" x2="131" y2="296"/>
        <line x1="131" y1="296" x2="143" y2="296"/>
        <line x1="143" y1="296" x2="143" y2="292"/>
        <line x1="143" y1="292" x2="155" y2="292"/>
        <line x1="155" y1="292" x2="155" y2="296"/>
        <line x1="155" y1="296" x2="167" y2="296"/>
        <line x1="167" y1="296" x2="167" y2="292"/>
        <line x1="167" y1="292" x2="179" y2="292"/>
        <line x1="179" y1="292" x2="179" y2="296"/>
        <line x1="179" y1="296" x2="191" y2="296"/>
        <line x1="191" y1="296" x2="191" y2="292"/>
        <line x1="191" y1="292" x2="203" y2="292"/>
        <line x1="203" y1="292" x2="203" y2="296"/>
        <line x1="203" y1="296" x2="215" y2="296"/>
        <line x1="215" y1="296" x2="215" y2="292"/>
        <line x1="215" y1="292" x2="227" y2="292"/>
        <line x1="227" y1="292" x2="227" y2="296"/>
        <line x1="227" y1="296" x2="239" y2="296"/>
        <line x1="239" y1="296" x2="239" y2="292"/>
        <line x1="239" y1="292" x2="251" y2="292"/>
        <line x1="251" y1="292" x2="251" y2="296"/>
        <line x1="251" y1="296" x2="263" y2="296"/>
        <line x1="263" y1="296" x2="263" y2="292"/>
        <line x1="263" y1="292" x2="275" y2="292"/>
        <line x1="275" y1="292" x2="275" y2="296"/>
        <line x1="275" y1="296" x2="287" y2="296"/>
        <line x1="287" y1="296" x2="298" y2="296"/>
        <line x1="298" y1="296" x2="298" y2="276"/>
        <line x1="298" y1="276" x2="294" y2="276"/>
        <line x1="294" y1="276" x2="294" y2="264"/>
        <line x1="294" y1="264" x2="298" y2="264"/>
        <line x1="298" y1="264" x2="298" y2="252"/>
        <line x1="298" y1="252" x2="294" y2="252"/>
        <line x1="294" y1="252" x2="294" y2="240"/>
        <line x1="294" y1="240" x2="298" y2="240"/>
        <line x1="298" y1="240" x2="298" y2="228"/>
        <line x1="298" y1="228" x2="294" y2="228"/>
        <line x1="294" y1="228" x2="294" y2="216"/>
        <line x1="294" y1="216" x2="298" y2="216"/>
        <line x1="298" y1="216" x2="298" y2="204"/>
        <line x1="298" y1="204" x2="294" y2="204"/>
        <line x1="294" y1="204" x2="294" y2="192"/>
        <line x1="294" y1="192" x2="298" y2="192"/>
        <line x1="298" y1="192" x2="298" y2="180"/>
        <line x1="298" y1="180" x2="294" y2="180"/>
        <line x1="294" y1="180" x2="294" y2="168"/>
        <line x1="294" y1="168" x2="298" y2="168"/>
        <line x1="298" y1="168" x2="298" y2="156"/>
        <line x1="298" y1="156" x2="298" y2="148"/>
        <line x1="298" y1="148" x2="275" y2="148"/>
        <line x1="275" y1="148" x2="275" y2="152"/>
        <line x1="275" y1="152" x2="263" y2="152"/>
        <line x1="263" y1="152" x2="263" y2="148"/>
        <line x1="263" y1="148" x2="251" y2="148"/>
        <line x1="251" y1="148" x2="251" y2="152"/>
        <line x1="251" y1="152" x2="239" y2="152"/>
        <line x1="239" y1="152" x2="239" y2="148"/>
        <line x1="239" y1="148" x2="227" y2="148"/>
        <line x1="227" y1="148" x2="227" y2="152"/>
        <line x1="227" y1="152" x2="215" y2="152"/>
        <line x1="215" y1="152" x2="215" y2="148"/>
        <line x1="215" y1="148" x2="203" y2="148"/>
        <line x1="203" y1="148" x2="203" y2="152"/>
        <line x1="203" y1="152" x2="191" y2="152"/>
        <line x1="191" y1="152" x2="191" y2="148"/>
        <line x1="191" y1="148" x2="179" y2="148"/>
        <line x1="179" y1="148" x2="179" y2="152"/>
        <line x1="179" y1="152" x2="167" y2="152"/>
        <line x1="167" y1="152" x2="167" y2="148"/>
        <line x1="167" y1="148" x2="155" y2="148"/>
        <line x1="155" y1="148" x2="155" y2="152"/>
        <line x1="155" y1="152" x2="143" y2="152"/>
        <line x1="143" y1="152" x2="143" y2="148"/>
        <line x1="143" y1="148" x2="131" y2="148"/>
        <line x1="131" y1="148" x2="131" y2="152"/>
        <line x1="131" y1="152" x2="119" y2="152"/>
        <line x1="119" y1="152" x2="119" y2="148"/>
        <line x1="119" y1="148" x2="107" y2="148"/>
        <line x1="107" y1="148" x2="107" y2="152"/>
        <line x1="107" y1="152" x2="95" y2="152"/>
        <line x1="95" y1="152" x2="95" y2="148"/>
        <line x1="95" y1="148" x2="83" y2="148"/>
        <line x1="83" y1="148" x2="83" y2="152"/>
        <line x1="83" y1="152" x2="71" y2="152"/>
        <line x1="71" y1="152" x2="71" y2="148"/>
        <line x1="71" y1="148" x2="59" y2="148"/>
        <line x1="59" y1="148" x2="59" y2="152"/>
        <line x1="59" y1="152" x2="47" y2="152"/>
        <line x1="47" y1="152" x2="47" y2="148"/>
        <line x1="47" y1="148" x2="35" y2="148"/>
        <line x1="35" y1="148" x2="35" y2="152"/>
        <line x1="35" y1="152" x2="23" y2="152"/>
        <line x1="23" y1="152" x2="23" y2="148"/>
        <line x1="23" y1="148" x2="11" y2="148"/>
        <line x1="11" y1="148" x2="0" y2="148"/>
    </g>
    <g lc:layername="left_outsideCutPath" lc:is_locked="false" lc:is_construction="false" fill="none" stroke="black" stroke-width="1">
        <line x1="298" y1="296" x2="317" y2="296"/>
        <line x1="317" y1="296" x2="317" y2="292"/>
        <line x1="317" y1="292" x2="329" y2="292"/>
        <line x1="329" y1="292" x2="329" y2="296"/>
        <line x1="329" y1="296" x2="341" y2="296"/>
        <line x1="341" y1="296" x2="341" y2="292"/>
        <line x1="341" y1="292" x2="353" y2="292"/>
        <line x1="353" y1="292" x2="353" y2="296"/>
        <line x1="353" y1="296" x2="365" y2="296"/>
        <line x1="365" y1="296" x2="365" y2="292"/>
        <line x1="365" y1="292" x2="377" y2="292"/>
        <line x1="377" y1="292" x2="377" y2="296"/>
        <line x1="377" y1="296" x2="389" y2="296"/>
        <line x1="389" y1="296" x2="389" y2="292"/>
        <line x1="389" y1="292" x2="401" y2="292"/>
        <line x1="401" y1="292" x2="401" y2="296"/>
        <line x1="401" y1="296" x2="413" y2="296"/>
        <line x1="413" y1="296" x2="413" y2="292"/>
        <line x1="413" y1="292" x2="425" y2="292"/>
        <line x1="425" y1="292" x2="425" y2="296"/>
        <line x1="425" y1="296" x2="437" y2="296"/>
        <line x1="437" y1="296" x2="437" y2="292"/>
        <line x1="437" y1="292" x2="449" y2="292"/>
        <line x1="449" y1="292" x2="449" y2="296"/>
        <line x1="449" y1="296" x2="461" y2="296"/>
        <line x1="461" y1="296" x2="461" y2="292"/>
        <line x1="461" y1="292" x2="473" y2="292"/>
        <line x1="473" y1="292" x2="473" y2="296"/>
        <line x1="473" y1="296" x2="485" y2="296"/>
        <line x1="485" y1="296" x2="485" y2="292"/>
        <line x1="485" y1="292" x2="497" y2="292"/>
        <line x1="497" y1="292" x2="497" y2="296"/>
        <line x1="497" y1="296" x2="509" y2="296"/>
        <line x1="509" y1="296" x2="509" y2="292"/>
        <line x1="509" y1="292" x2="521" y2="292"/>
        <line x1="521" y1="292" x2="521" y2="296"/>
        <line x1="521" y1="296" x2="533" y2="296"/>
        <line x1="533" y1="296" x2="533" y2="292"/>
        <line x1="533" y1="292" x2="545" y2="292"/>
        <line x1="545" y1="292" x2="545" y2="296"/>
        <line x1="545" y1="296" x2="557" y2="296"/>
        <line x1="557" y1="296" x2="557" y2="292"/>
        <line x1="557" y1="292" x2="569" y2="292"/>
        <line x1="569" y1="292" x2="569" y2="296"/>
        <line x1="569" y1="296" x2="581" y2="296"/>
        <line x1="581" y1="296" x2="588" y2="296"/>
        <line x1="588" y1="296" x2="588" y2="276"/>
        <line x1="588" y1="276" x2="592" y2="276"/>
        <line x1="592" y1="276" x2="592" y2="264"/>
        <line x1="592" y1="264" x2="588" y2="264"/>
        <line x1="588" y1="264" x2="588" y2="252"/>
        <line x1="588" y1="252" x2="592" y2="252"/>
        <line x1="592" y1="252" x2="592" y2="240"/>
        <line x1="592" y1="240" x2="588" y2="240"/>
        <line x1="588" y1="240" x2="588" y2="228"/>
        <line x1="588" y1="228" x2="592" y2="228"/>
        <line x1="592" y1="228" x2="592" y2="216"/>
        <line x1="592" y1="216" x2="588" y2="216"/>
        <line x1="588" y1="216" x2="588" y2="204"/>
        <line x1="588" y1="204" x2="592" y2="204"/>
        <line x1="592" y1="204" x2="592" y2="192"/>
        <line x1="592" y1="192" x2="588" y2="192"/>
        <line x1="588" y1="192" x2="588" y2="180"/>
        <line x1="588" y1="180" x2="592" y2="180"/>
        <line x1="592" y1="180" x2="592" y2="168"/>
        <line x1="592" y1="168" x2="588" y2="168"/>
        <line x1="588" y1="168" x2="588" y2="156"/>
        <line x1="588" y1="156" x2="588" y2="148"/>
        <line x1="588" y1="148" x2="569" y2="148"/>
        <line x1="569" y1="148" x2="569" y2="152"/>
        <line x1="569" y1="152" x2="557" y2="152"/>
        <line x1="557" y1="152" x2="557" y2="148"/>
        <line x1="557" y1="148" x2="545" y2="148"/>
        <line x1="545" y1="148" x2="545" y2="152"/>
        <line x1="545" y1="152" x2="533" y2="152"/>
        <line x1="533" y1="152" x2="533" y2="148"/>
        <line x1="533" y1="148" x2="521" y2="148"/>
        <line x1="521" y1="148" x2="521" y2="152"/>
        <line x1="521" y1="152" x2="509" y2="152"/>
        <line x1="509" y1="152" x2="509" y2="148"/>
        <line x1="509" y1="148" x2="497" y2="148"/>
        <line x1="497" y1="148" x2="497" y2="152"/>
        <line x1="497" y1="152" x2="485" y2="152"/>
        <line x1="485" y1="152" x2="485" y2="148"/>
        <line x1="485" y1="148" x2="473" y2="148"/>
        <line x1="473" y1="148" x2="473" y2="152"/>
        <line x1="473" y1="152" x2="461" y2="152"/>
        <line x1="461" y1="152" x2="461" y2="148"/>
        <line x1="461" y1="148" x2="449" y2="148"/>
        <line x1="449" y1="148" x2="449" y2="152"/>
        <line x1="449" y1="152" x2="437" y2="152"/>
        <line x1="437" y1="152" x2="437" y2="148"/>
        <line x1="437" y1="148" x2="425" y2="148"/>
        <line x1="425" y1="148" x2="425" y2="152"/>
        <line x1="425" y1="152" x2="413" y2="152"/>
        <line x1="413" y1="152" x2="413" y2="148"/>
        <line x1="413" y1="148" x2="401" y2="148"/>
        <line x1="401" y1="148" x2="401" y2="152"/>
        <line x1="401" y1="152" x2="389" y2="152"/>
        <line x1="389" y1="152" x2="389" y2="148"/>
        <line x1="389" y1="148" x2="377" y2="148"/>
        <line x1="377" y1="148" x2="377" y2="152"/>
        <line x1="377" y1="152" x2="365" y2="152"/>
        <line x1="365" y1="152" x2="365" y2="148"/>
        <line x1="365" y1="148" x2="353" y2="148"/>
        <line x1="353" y1="148" x2="353" y2="152"/>
        <line x1="353" y1="152" x2="341" y2="152"/>
        <line x1="341" y1="152" x2="341" y2="148"/>
        <line x1="341" y1="148" x2="329" y2="148"/>
        <line x1="329" y1="148" x2="329" y2="152"/>
        <line x1="329" y1="152" x2="317" y2="152"/>
        <line x1="317" y1="152" x2="317" y2="148"/>
        <line x1="317" y1="148" x2="305" y2="148"/>
        <line x1="305" y1="148" x2="298" y2="148"/>
    </g>
    <g lc:layername="right_outsideCutPath" lc:is_locked="false" lc:is_construction="false" fill="none" stroke="black" stroke-width="1">
        <line x1="298" y1="0" x2="298" y2="20"/>
        <line x1="298" y1="20" x2="294" y2="20"/>
        <line x1="294" y1="20" x2="294" y2="32"/>
        <line x1="294" y1="32" x2="298" y2="32"/>
        <line x1="298" y1="32" x2="298" y2="44"/>
        <line x1="298" y1="44" x2="294" y2="44"/>
        <line x1="294" y1="44" x2="294" y2="56"/>
        <line x1="294" y1="56" x2="298" y2="56"/>
        <line x1="298" y1="56" x2="298" y2="68"/>
        <line x1="298" y1="68" x2="294" y2="68"/>
        <line x1="294" y1="68" x2="294" y2="80"/>
        <line x1="294" y1="80" x2="298" y2="80"/>
        <line x1="298" y1="80" x2="298" y2="92"/>
        <line x1="298" y1="92" x2="294" y2="92"/>
        <line x1="294" y1="92" x2="294" y2="104"/>
        <line x1="294" y1="104" x2="298" y2="104"/>
        <line x1="298" y1="104" x2="298" y2="116"/>
        <line x1="298" y1="116" x2="294" y2="116"/>
        <line x1="294" y1="116" x2="294" y2="128"/>
        <line x1="294" y1="128" x2="298" y2="128"/>
        <line x1="298" y1="128" x2="298" y2="140"/>
        <line x1="298" y1="140" x2="298" y2="148"/>
        <line x1="317" y1="148" x2="317" y2="144"/>
        <line x1="317" y1="144" x2="329" y2="144"/>
        <line x1="329" y1="144" x2="329" y2="148"/>
        <line x1="341" y1="148" x2="341" y2="144"/>
        <line x1="341" y1="144" x2="353" y2="144"/>
        <line x1="353" y1="144" x2="353" y2="148"/>
        <line x1="365" y1="148" x2="365" y2="144"/>
        <line x1="365" y1="144" x2="377" y2="144"/>
        <line x1="377" y1="144" x2="377" y2="148"/>
        <line x1="389" y1="148" x2="389" y2="144"/>
        <line x1="389" y1="144" x2="401" y2="144"/>
        <line x1="401" y1="144" x2="401" y2="148"/>
        <line x1="413" y1="148" x2="413" y2="144"/>
        <line x1="413" y1="144" x2="425" y2="144"/>
        <line x1="425" y1="144" x2="425" y2="148"/>
        <line x1="437" y1="148" x2="437" y2="144"/>
        <line x1="437" y1="144" x2="449" y2="144"/>
        <line x1="449" y1="144" x2="449" y2="148"/>
        <line x1="461" y1="148" x2="461" y2="144"/>
        <line x1="461" y1="144" x2="473" y2="144"/>
        <line x1="473" y1="144" x2="473" y2="148"/>
        <line x1="485" y1="148" x2="485" y2="144"/>
        <line x1="485" y1="144" x2="497" y2="144"/>
        <line x1="497" y1="144" x2="497" y2="148"/>
        <line x1="509" y1="148" x2="509" y2="144"/>
        <line x1="509" y1="144" x2="521" y2="144"/>
        <line x1="521" y1="144" x2="521" y2="148"/>
        <line x1="533" y1="148" x2="533" y2="144"/>
        <line x1="533" y1="144" x2="545" y2="144"/>
        <line x1="545" y1="144" x2="545" y2="148"/>
        <line x1="557" y1="148" x2="557" y2="144"/>
        <line x1="557" y1="144" x2="569" y2="144"/>
        <line x1="569" y1="144" x2="569" y2="148"/>
        <line x1="588" y1="148" x2="588" y2="128"/>
        <line x1="588" y1="128" x2="592" y2="128"/>
        <line x1="592" y1="128" x2="592" y2="116"/>
        <line x1="592" y1="116" x2="588" y2="116"/>
        <line x1="588" y1="116" x2="588" y2="104"/>
        <line x1="588" y1="104" x2="592" y2="104"/>
        <line x1="592" y1="104" x2="592" y2="92"/>
        <line x1="592" y1="92" x2="588" y2="92"/>
        <line x1="588" y1="92" x2="588" y2="80"/>
        <line x1="588" y1="80" x2="592" y2="80"/>
        <line x1="592" y1="80" x2="592" y2="68"/>
        <line x1="592" y1="68" x2="588" y2="68"/>
        <line x1="588" y1="68" x2="588" y2="56"/>
        <line x1="588" y1="56" x2="592" y2="56"/>
        <line x1="592" y1="56" x2="592" y2="44"/>
        <line x1="592" y1="44" x2="588" y2="44"/>
        <line x1="588" y1="44" x2="588" y2="32"/>
        <line x1="588" y1="32" x2="592" y2="32"/>
        <line x1="592" y1="32" x2="592" y2="20"/>
        <line x1="592" y1="20" x2="588" y2="20"/>
        <line x1="588" y1="20" x2="588" y2="8"/>
        <line x1="588" y1="8" x2="588" y2="0"/>
        <line x1="588" y1="0" x2="569" y2="0"/>
        <line x1="569" y1="0" x2="569" y2="4"/>
        <line x1="569" y1="4" x2="557" y2="4"/>
        <line x1="557" y1="4" x2="557" y2="0"/>
        <line x1="557" y1="0" x2="545" y2="0"/>
        <line x1="545" y1="0" x2="545" y2="4"/>
        <line x1="545" y1="4" x2="533" y2="4"/>
        <line x1="533" y1="4" x2="533" y2="0"/>
        <line x1="533" y1="0" x2="521" y2="0"/>
        <line x1="521" y1="0" x2="521" y2="4"/>
        <line x1="521" y1="4" x2="509" y2="4"/>
        <line x1="509" y1="4" x2="509" y2="0"/>
        <line x1="509" y1="0" x2="497" y2="0"/>
        <line x1="497" y1="0" x2="497" y2="4"/>
        <line x1="497" y1="4" x2="485" y2="4"/>
        <line x1="485" y1="4" x2="485" y2="0"/>
        <line x1="485" y1="0" x2="473" y2="0"/>
        <line x1="473" y1="0" x2="473" y2="4"/>
        <line x1="473" y1="4" x2="461" y2="4"/>
        <line x1="461" y1="4" x2="461" y2="0"/>
        <line x1="461" y1="0" x2="449" y2="0"/>
        <line x1="449" y1="0" x2="449" y2="4"/>
        <line x1="449" y1="4" x2="437" y2="4"/>
        <line x1="437" y1="4" x2="437" y2="0"/>
        <line x1="437" y1="0" x2="425" y2="0"/>
        <line x1="425" y1="0" x2="425" y2="4"/>
        <line x1="425" y1="4" x2="413" y2="4"/>
        <line x1="413" y1="4" x2="413" y2="0"/>
        <line x1="413" y1="0" x2="401" y2="0"/>
        <line x1="401" y1="0" x2="401" y2="4"/>
        <line x1="401" y1="4" x2="389" y2="4"/>
        <line x1="389" y1="4" x2="389" y2="0"/>
        <line x1="389" y1="0" x2="377" y2="0"/>
        <line x1="377" y1="0" x2="377" y2="4"/>
        <line x1="377" y1="4" x2="365" y2="4"/>
        <line x1="365" y1="4" x2="365" y2="0"/>
        <line x1="365" y1="0" x2="353" y2="0"/>
        <line x1="353" y1="0" x2="353" y2="4"/>
        <line x1="353" y1="4" x2="341" y2="4"/>
        <line x1="341" y1="4" x2="341" y2="0"/>
        <line x1="341" y1="0" x2="329" y2="0"/>
        <line x1="329" y1="0" x2="329" y2="4"/>
        <line x1="329" y1="4" x2="317" y2="4"/>
        <line x1="317" y1="4" x2="317" y2="0"/>
        <line x1="317" y1="0" x2="305" y2="0"/>
        <line x1="305" y1="0" x2="298" y2="0"/>
    </g>
    <g lc:layername="top_outsideCutPath" lc:is_locked="false" lc:is_construction="false" fill="none" stroke="black" stroke-width="1"/>
</svg>
